<svg width="56" height="56" viewBox="0 0 56 56" fill="none" xmlns="http://www.w3.org/2000/svg">
<path d="M36.985 0H7.963C7.155 0 6.5 0.655 6.5 1.926V55C6.5 55.345 7.155 56 7.963 56H48.037C48.845 56 49.5 55.345 49.5 55V12.978C49.5 12.282 49.407 12.058 49.243 11.893L37.607 0.257C37.442 0.093 37.218 0 36.985 0Z" fill="#E9E9E0"/>
<path d="M37.5 0.151001V12H49.349L37.5 0.151001Z" fill="#D9D7CA"/>
<path d="M48.037 56H7.963C7.155 56 6.5 55.345 6.5 54.537V39H49.5V54.537C49.5 55.345 48.845 56 48.037 56Z" fill="#293241"/>
<path d="M26.021 42.719V50.567C26.021 51.041 25.934 51.44 25.761 51.763C25.587 52.086 25.355 52.346 25.064 52.542C24.772 52.738 24.437 52.875 24.059 52.952C23.681 53.029 23.29 53.068 22.89 53.068C22.689 53.068 22.454 53.047 22.186 53.006C21.918 52.965 21.639 52.902 21.352 52.815C21.065 52.728 20.789 52.63 20.525 52.521C20.26 52.412 20.037 52.289 19.855 52.152L20.552 51.045C20.643 51.108 20.773 51.175 20.942 51.243C21.111 51.311 21.295 51.375 21.496 51.434C21.696 51.494 21.906 51.545 22.125 51.591C22.344 51.637 22.549 51.659 22.74 51.659C23.222 51.659 23.608 51.565 23.895 51.379C24.182 51.193 24.334 50.875 24.353 50.429V42.718H26.021V42.719Z" fill="white"/>
<path d="M34.184 50.238C34.184 50.602 34.109 50.956 33.958 51.298C33.807 51.64 33.596 51.941 33.322 52.2C33.048 52.459 32.711 52.667 32.31 52.822C31.909 52.977 31.453 53.054 30.943 53.054C30.724 53.054 30.499 53.042 30.266 53.02C30.033 52.998 29.798 52.958 29.562 52.904C29.325 52.849 29.099 52.774 28.885 52.678C28.671 52.582 28.486 52.466 28.331 52.329L28.618 51.153C28.745 51.226 28.907 51.297 29.103 51.365C29.299 51.433 29.501 51.497 29.711 51.556C29.92 51.616 30.13 51.663 30.34 51.7C30.549 51.736 30.745 51.755 30.928 51.755C31.484 51.755 31.91 51.625 32.206 51.365C32.502 51.105 32.65 50.72 32.65 50.21C32.65 49.9 32.545 49.636 32.336 49.417C32.126 49.198 31.864 49 31.55 48.822C31.236 48.644 30.896 48.467 30.531 48.289C30.166 48.111 29.824 47.901 29.506 47.66C29.187 47.419 28.922 47.134 28.713 46.806C28.503 46.478 28.399 46.068 28.399 45.576C28.399 45.13 28.481 44.733 28.645 44.387C28.809 44.041 29.03 43.746 29.308 43.505C29.586 43.264 29.91 43.079 30.279 42.951C30.648 42.823 31.038 42.76 31.448 42.76C31.867 42.76 32.291 42.799 32.719 42.876C33.147 42.953 33.493 43.079 33.758 43.252C33.703 43.37 33.639 43.5 33.567 43.642C33.494 43.784 33.425 43.915 33.362 44.038C33.298 44.161 33.243 44.264 33.198 44.346C33.152 44.428 33.125 44.474 33.116 44.483C33.061 44.456 33 44.42 32.931 44.374C32.862 44.328 32.764 44.283 32.637 44.237C32.509 44.191 32.34 44.16 32.131 44.141C31.921 44.122 31.652 44.127 31.324 44.155C31.141 44.174 30.969 44.225 30.804 44.312C30.639 44.399 30.493 44.505 30.366 44.633C30.238 44.761 30.137 44.904 30.065 45.064C29.992 45.223 29.956 45.377 29.956 45.522C29.956 45.886 30.06 46.18 30.27 46.404C30.479 46.628 30.739 46.823 31.049 46.992C31.359 47.161 31.695 47.325 32.061 47.484C32.425 47.643 32.765 47.838 33.08 48.065C33.395 48.292 33.656 48.578 33.866 48.919C34.078 49.261 34.184 49.7 34.184 50.238Z" fill="white"/>
<path d="M19.5 19V15C19.5 14.449 19.948 14 20.5 14C21.053 14 21.5 13.552 21.5 13C21.5 12.448 21.053 12 20.5 12C18.846 12 17.5 13.346 17.5 15V19C17.5 20.103 16.603 21 15.5 21C14.947 21 14.5 21.448 14.5 22C14.5 22.552 14.947 23 15.5 23C16.603 23 17.5 23.897 17.5 25V29C17.5 30.654 18.846 32 20.5 32C21.053 32 21.5 31.552 21.5 31C21.5 30.448 21.053 30 20.5 30C19.948 30 19.5 29.551 19.5 29V25C19.5 23.8 18.958 22.734 18.118 22C18.958 21.266 19.5 20.2 19.5 19Z" fill="#293241"/>
<path d="M27.5 20C28.3284 20 29 19.3284 29 18.5C29 17.6716 28.3284 17 27.5 17C26.6716 17 26 17.6716 26 18.5C26 19.3284 26.6716 20 27.5 20Z" fill="#293241"/>
<path d="M39.5 21C38.397 21 37.5 20.103 37.5 19V15C37.5 13.346 36.154 12 34.5 12C33.947 12 33.5 12.448 33.5 13C33.5 13.552 33.947 14 34.5 14C35.052 14 35.5 14.449 35.5 15V19C35.5 20.2 36.042 21.266 36.882 22C36.042 22.734 35.5 23.8 35.5 25V29C35.5 29.551 35.052 30 34.5 30C33.947 30 33.5 30.448 33.5 31C33.5 31.552 33.947 32 34.5 32C36.154 32 37.5 30.654 37.5 29V25C37.5 23.897 38.397 23 39.5 23C40.053 23 40.5 22.552 40.5 22C40.5 21.448 40.053 21 39.5 21Z" fill="#293241"/>
<path d="M27.5 24C26.947 24 26.5 24.448 26.5 25V28C26.5 28.552 26.947 29 27.5 29C28.053 29 28.5 28.552 28.5 28V25C28.5 24.448 28.053 24 27.5 24Z" fill="#293241"/>
<path d="M55.601 40.6393C55.3449 40.8963 54.9997 41.0404 54.6399 41.0404C54.2802 41.0404 53.9349 40.8963 53.6789 40.6393L47.8562 34.7177V51.6202C47.8562 51.9861 47.7133 52.3371 47.4589 52.5959C47.2044 52.8546 46.8593 53 46.4995 53C46.1397 53 45.7946 52.8546 45.5402 52.5959C45.2857 52.3371 45.1428 51.9861 45.1428 51.6202V34.7177L39.3201 40.6393C39.0652 40.8985 38.7195 41.0442 38.3591 41.0442C37.9986 41.0442 37.6529 40.8985 37.3981 40.6393C37.1432 40.3801 37 40.0285 37 39.662C37 39.2954 37.1432 38.9438 37.3981 38.6846L45.5385 30.4058C45.6645 30.2772 45.8143 30.1751 45.9792 30.1055C46.1441 30.0358 46.3209 30 46.4995 30C46.6781 30 46.8549 30.0358 47.0198 30.1055C47.1847 30.1751 47.3345 30.2772 47.4605 30.4058L55.601 38.6846C55.7274 38.8128 55.8278 38.9651 55.8963 39.1328C55.9648 39.3006 56 39.4804 56 39.662C56 39.8436 55.9648 40.0234 55.8963 40.1911C55.8278 40.3588 55.7274 40.5111 55.601 40.6393V40.6393Z" fill="#6A707A"/>
</svg>
