<svg width="90" height="84" viewBox="0 0 90 84" fill="none" xmlns="http://www.w3.org/2000/svg">
<g clip-path="url(#clip0_804_39)">
<path d="M20.75 0H13.1417C11.8967 0 10.9283 0.968333 10.9283 2.21333V14.94C10.9283 16.185 11.8967 17.1533 13.1417 17.1533H20.75V80.925C20.75 82.17 21.7183 83.1383 22.9633 83.1383H38.18C39.425 83.1383 40.3933 82.17 40.3933 80.925V2.21333C40.3933 0.968333 39.425 0 38.18 0H20.75V0Z" fill="#3498DB"/>
<path d="M52.4284 0H44.82C43.575 0 42.6067 0.968333 42.6067 2.21333V14.94C42.6067 16.185 43.575 17.1533 44.82 17.1533H52.4284V32.0933C52.4284 33.3383 53.3967 34.3067 54.6417 34.3067H69.8584C71.1034 34.3067 72.0717 33.3383 72.0717 32.0933V2.21333C72.0717 0.968333 71.1034 0 69.8584 0H52.4284V0Z" fill="#F39C12"/>
<path opacity="0.4" d="M52.4283 31.2634L72.0717 21.58L52.4283 25.8684V31.2634Z" fill="black"/>
<g opacity="0.4">
<path d="M40.255 55.195L20.75 64.8783L40.255 60.59V55.195Z" fill="black"/>
</g>
<path d="M72.0717 21.4417L20.75 43.16V65.0167L70.6883 43.99C71.5183 43.7133 72.0717 42.8833 72.0717 42.0533V21.4417V21.4417Z" fill="#E74C3C"/>
</g>
<g clip-path="url(#clip1_804_39)">
<path opacity="0.5" d="M47.9977 58.3676C57.0386 58.3676 64.3677 51.0385 64.3677 41.9976C64.3677 32.9567 57.0386 25.6276 47.9977 25.6276C38.9568 25.6276 31.6277 32.9567 31.6277 41.9976C31.6277 51.0385 38.9568 58.3676 47.9977 58.3676Z" fill="#27A2DB"/>
<path opacity="0.5" d="M40.3719 51.5948C34.908 46.1311 34.8366 37.3437 40.2124 31.9681C41.4119 30.7684 42.7869 29.8559 44.2516 29.1981C42.1706 29.8051 40.208 30.9265 38.5672 32.5673C33.3592 37.7755 33.359 46.2195 38.5672 51.4278C40.8733 53.7337 43.8141 55.014 46.8272 55.2779C44.4689 54.6683 42.2273 53.4503 40.3719 51.5948Z" fill="white"/>
<path d="M62.1379 27.8568C54.3284 20.0473 41.6667 20.0474 33.8572 27.857C26.0478 35.6665 26.0477 48.3282 33.8571 56.1377C41.0539 63.3344 52.3621 63.8819 60.2056 57.8146L61.9943 59.6035L65.6037 55.9942L63.8148 54.2053C69.882 46.362 69.3347 35.0536 62.1379 27.8568ZM59.5729 53.5727C53.18 59.9656 42.815 59.9656 36.422 53.5727C30.0293 47.1799 30.0293 36.8149 36.4223 30.422C42.8153 24.0291 53.1799 24.0291 59.5728 30.422C65.9658 36.8149 65.9658 47.1799 59.5729 53.5727Z" fill="#1F5B83"/>
<path d="M62 59.5L64.5 55L70 60.5L64 61.5L62 59.5Z" fill="#174767"/>
<path d="M66.5763 54.6531L60.653 60.5763C60.3163 60.9131 60.3163 61.4588 60.653 61.7955L82.644 83.7863C84.1743 85.3168 91.3167 78.1744 89.7863 76.644L67.7955 54.6531C67.4588 54.3164 66.9131 54.3164 66.5763 54.6531Z" fill="#F39C12"/>
<path d="M65.3791 66.5215L72.5214 59.3792L71.3089 58.1667L64.1666 65.309L65.3791 66.5215Z" fill="#EBF0F3"/>
<path d="M62.9669 64.1056L70.1093 56.9633L68.8968 55.7508L61.7544 62.8931L62.9669 64.1056Z" fill="#EBF0F3"/>
</g>
<defs>
<clipPath id="clip0_804_39">
<rect width="83" height="83" fill="white"/>
</clipPath>
<clipPath id="clip1_804_39">
<rect width="62" height="62" fill="white" transform="translate(28 22)"/>
</clipPath>
</defs>
</svg>
